HIERARCHY
ROOT joint_Root
{
	OFFSET 0.0 0.0 0.0
	CHANNELS 6 Xposition Yposition Zposition Zrotation Xrotation Yrotation 
	JOINT Hips
	{
		OFFSET -0.726466 93.3139 -2.00062
		CHANNELS 6 Xposition Yposition Zposition Zrotation Xrotation Yrotation 
		JOINT Spine
		{
			OFFSET 15.7357 0.0 0.0
			CHANNELS 6 Xposition Yposition Zposition Zrotation Xrotation Yrotation 
			JOINT Chest
			{
				OFFSET 8.98455 -0.406207 0.0
				CHANNELS 6 Xposition Yposition Zposition Zrotation Xrotation Yrotation 
				JOINT Neck
				{
					OFFSET 16.3773 0.0 0.0
					CHANNELS 6 Xposition Yposition Zposition Zrotation Xrotation Yrotation 
					JOINT Head
					{
						OFFSET 6.45672 0.0 0.0
						CHANNELS 6 Xposition Yposition Zposition Zrotation Xrotation Yrotation 
						End Site
						{
							OFFSET 0.0 0.0 0.0
						}
					}
				}
				JOINT Shoulder_L
				{
					OFFSET 12.9942 -0.242716 4.98039
					CHANNELS 6 Xposition Yposition Zposition Zrotation Xrotation Yrotation 
					JOINT UpperArm_L
					{
						OFFSET 5.34809 0.0 0.0
						CHANNELS 6 Xposition Yposition Zposition Zrotation Xrotation Yrotation 
						JOINT LowerArm_L
						{
							OFFSET 24.3286 1.87007e-05 0.0
							CHANNELS 6 Xposition Yposition Zposition Zrotation Xrotation Yrotation 
							JOINT Hand_L
							{
								OFFSET 22.2916 0.0 0.0
								CHANNELS 6 Xposition Yposition Zposition Zrotation Xrotation Yrotation 
								End Site
								{
									OFFSET 0.0 0.0 0.0
								}
							}
						}
					}
				}
				JOINT Shoulder_R
				{
					OFFSET 12.9945 -0.242716 -4.98039
					CHANNELS 6 Xposition Yposition Zposition Zrotation Xrotation Yrotation 
					JOINT UpperArm_R
					{
						OFFSET -5.34813 0.0 0.0
						CHANNELS 6 Xposition Yposition Zposition Zrotation Xrotation Yrotation 
						JOINT LowerArm_R
						{
							OFFSET -24.3289 0.000322201 0.0
							CHANNELS 6 Xposition Yposition Zposition Zrotation Xrotation Yrotation 
							JOINT Hand_R
							{
								OFFSET -22.2915 -0.000108084 0.0
								CHANNELS 6 Xposition Yposition Zposition Zrotation Xrotation Yrotation 
								End Site
								{
									OFFSET 0.0 0.0 0.0
								}
							}
						}
					}
				}
			}
		}
		JOINT UpperLeg_L
		{
			OFFSET -2.19248 -6.46944 0.0
			CHANNELS 6 Xposition Yposition Zposition Zrotation Xrotation Yrotation 
			JOINT LowerLeg_L
			{
				OFFSET 39.0811 0.0 -1.23785e-05
				CHANNELS 6 Xposition Yposition Zposition Zrotation Xrotation Yrotation 
				JOINT Foot_L
				{
					OFFSET 40.9854 0.0 -1.26872e-05
					CHANNELS 6 Xposition Yposition Zposition Zrotation Xrotation Yrotation 
					JOINT Toes_L
					{
						OFFSET 11.7543 0.0 0.0
						CHANNELS 6 Xposition Yposition Zposition Zrotation Xrotation Yrotation 
						End Site
						{
							OFFSET 0.0 0.0 0.0
						}
					}
				}
			}
		}
		JOINT UpperLeg_R
		{
			OFFSET -2.19251 6.46944 0.0
			CHANNELS 6 Xposition Yposition Zposition Zrotation Xrotation Yrotation 
			JOINT LowerLeg_R
			{
				OFFSET -39.0811 -0.00228153 -0.0401928
				CHANNELS 6 Xposition Yposition Zposition Zrotation Xrotation Yrotation 
				JOINT Foot_R
				{
					OFFSET -40.9854 0.0 0.0
					CHANNELS 6 Xposition Yposition Zposition Zrotation Xrotation Yrotation 
					JOINT Toes_R
					{
						OFFSET -11.7543 0.0 0.0
						CHANNELS 6 Xposition Yposition Zposition Zrotation Xrotation Yrotation 
						End Site
						{
							OFFSET 0.0 0.0 0.0
						}
					}
				}
			}
		}
	}
}
MOTION
Frames:	9
Frame Time:	0.0333333
0.000000 0.000000 0.000000 0.000000 0.000000 -0.000000 139.512000 88.858200 -142.799000 85.448400 5.157440 4.556200 15.735700 0.000005 -0.000001 69.010800 82.158500 -67.114800 8.984550 -0.406207 -0.000000 6.997840 -5.611220 4.133740 16.377300 -0.000001 -0.000001 2.734450 -3.340950 -0.863994 6.456720 -0.000001 -0.000000 1.462690 -2.060600 0.171397 12.994200 -0.242716 4.980390 -89.341700 -2.246270 -73.662000 5.348090 -0.000007 -0.000001 -51.088200 35.998400 -46.331500 24.328600 0.000019 0.000005 0.208874 0.252321 -39.616800 22.291600 -0.000001 0.000005 12.905800 5.545130 -8.478480 12.994500 -0.242716 -4.980390 88.457800 4.480090 -70.983300 -5.348130 -0.000001 -0.000004 -73.050000 22.928500 -1.340840 -24.328900 0.000322 -0.000009 0.710528 14.268800 -2.885180 -22.291500 -0.000108 -0.000004 12.291100 5.303090 -0.014720 -2.192480 -6.469440 -0.000000 -174.022000 -1.091270 10.983800 39.081100 -0.000007 -0.000012 -0.000299 0.000612 26.054000 40.985400 -0.000006 -0.000013 6.175590 5.273320 -78.251400 11.754300 -0.000000 0.000003 -0.214832 -0.287730 -18.532000 -2.192510 6.469440 -0.000001 -174.179000 13.219400 154.546000 -39.081100 -0.002282 -0.040193 0.013914 -0.027198 21.283300 -40.985400 0.000008 0.000006 2.876970 0.029577 -49.606000 -11.754300 -0.000006 -0.000006 -0.024069 -0.188868 -24.298100
0.000000 0.000000 0.000000 0.000000 0.000000 -0.000000 138.897000 88.607000 -138.589000 84.791800 5.928930 4.406380 15.735700 0.000005 -0.000001 66.191600 82.527900 -63.862000 8.984550 -0.406207 -0.000000 6.060200 -6.051230 4.978080 16.377300 -0.000001 -0.000001 3.031980 -3.433300 -1.100680 6.456720 -0.000001 -0.000000 2.069310 -1.832300 -0.214318 12.994200 -0.242716 4.980390 -89.395100 -2.069320 -73.701100 5.348090 -0.000007 -0.000001 -53.945900 34.408800 -43.841700 24.328600 0.000019 0.000005 0.064784 0.078468 -39.527000 22.291600 -0.000001 0.000005 13.634800 5.544830 -8.464600 12.994500 -0.242716 -4.980390 88.399500 4.531100 -70.521600 -5.348130 -0.000001 -0.000004 -72.578900 22.438400 -0.352715 -24.328900 0.000322 -0.000009 0.582852 15.259400 -2.217580 -22.291500 -0.000108 -0.000004 12.387900 5.282890 0.547031 -2.192480 -6.469440 -0.000000 -172.396000 -0.497977 11.917500 39.081100 -0.000007 -0.000012 0.000052 -0.000096 28.342100 40.985400 -0.000006 -0.000013 5.660290 6.339970 -76.283600 11.754300 -0.000000 0.000003 -0.020713 -0.171218 -23.573600 -2.192510 6.469440 -0.000001 -173.916000 10.636700 153.241000 -39.081100 -0.002282 -0.040193 0.027838 -0.046703 27.711700 -40.985400 0.000008 0.000006 4.111550 -0.805488 -48.982200 -11.754300 -0.000006 -0.000006 -0.023241 -0.184618 -24.122600
0.000000 0.000000 0.000000 0.000000 0.000000 -0.000000 138.278000 88.642000 -133.974000 84.061300 6.132270 4.933990 15.735700 0.000005 -0.000001 64.279700 82.721900 -61.495200 8.984550 -0.406207 -0.000000 5.535600 -6.356670 5.874830 16.377300 -0.000001 -0.000001 3.297850 -3.183440 -1.359530 6.456720 -0.000001 -0.000000 2.682570 -1.350370 -0.893078 12.994200 -0.242716 4.980390 -89.412600 -1.991370 -73.562300 5.348090 -0.000007 -0.000001 -58.243800 33.018100 -39.076100 24.328600 0.000019 0.000005 -0.341401 -0.409069 -39.845200 22.291600 -0.000001 0.000005 14.731600 5.547330 -8.577750 12.994500 -0.242716 -4.980390 88.426200 4.405900 -70.320300 -5.348130 -0.000001 -0.000004 -72.252100 21.923000 0.121049 -24.328900 0.000322 -0.000009 0.578108 15.427400 -2.176090 -22.291500 -0.000108 -0.000004 12.272400 5.273940 0.791717 -2.192480 -6.469440 -0.000000 -170.960000 0.048347 12.553400 39.081100 -0.000007 -0.000012 0.005536 -0.008784 32.215300 40.985400 -0.000006 -0.000013 4.801290 6.738450 -71.348800 11.754300 -0.000000 0.000003 -0.074088 -0.375083 -32.124900 -2.192510 6.469440 -0.000001 -173.404000 8.338450 154.075000 -39.081100 -0.002282 -0.040193 0.044513 -0.064171 32.712400 -40.985400 0.000008 0.000006 5.078390 -2.907840 -51.409300 -11.754300 -0.000006 -0.000006 -0.017439 -0.152667 -22.806100
0.000000 0.000000 0.000000 0.000000 0.000000 -0.000000 137.771000 88.917700 -129.292000 83.854800 6.008130 5.859720 15.735700 0.000005 -0.000001 63.758000 82.792000 -60.755800 8.984550 -0.406207 -0.000000 5.366540 -6.423070 6.304030 16.377300 -0.000001 -0.000001 3.429080 -2.969980 -1.512570 6.456720 -0.000001 -0.000000 3.352890 -0.810489 -1.508230 12.994200 -0.242716 4.980390 -89.353700 -2.199080 -73.617900 5.348090 -0.000007 -0.000001 -62.904900 31.665200 -33.359600 24.328600 0.000019 0.000005 -1.274190 -1.525430 -39.884600 22.291600 -0.000001 0.000005 15.386100 5.557880 -9.080900 12.994500 -0.242716 -4.980390 88.422500 4.352690 -70.056000 -5.348130 -0.000001 -0.000004 -71.960700 21.846000 -0.218623 -24.328900 0.000322 -0.000009 0.641104 14.647300 -2.538110 -22.291500 -0.000108 -0.000004 11.845900 5.280440 0.613267 -2.192480 -6.469440 -0.000000 -170.177000 -0.301731 11.425600 39.081100 -0.000007 -0.000012 0.023575 -0.029390 38.732400 40.985400 -0.000006 -0.000013 4.839590 6.523270 -62.330100 11.754300 -0.000000 0.000003 -0.175703 -0.603145 -42.260600 -2.192510 6.469440 -0.000001 -173.071000 7.734140 156.883000 -39.081100 -0.002282 -0.040193 0.056417 -0.074271 35.576800 -40.985400 0.000008 0.000006 5.506510 -3.796450 -55.684500 -11.754300 -0.000006 -0.000006 -0.013430 -0.127697 -21.780800
0.000000 0.000000 0.000000 0.000000 0.000000 -0.000000 137.299000 89.381200 -124.976000 83.871300 5.719660 7.246830 15.735700 0.000005 -0.000001 65.310100 82.703000 -62.243700 8.984550 -0.406207 -0.000000 5.691440 -6.136860 6.435930 16.377300 -0.000001 -0.000001 3.452610 -2.934660 -1.643180 6.456720 -0.000001 -0.000000 3.894470 -0.557245 -1.733370 12.994200 -0.242716 4.980390 -89.262400 -2.535690 -73.774500 5.348090 -0.000007 -0.000001 -66.246100 31.273400 -28.602800 24.328600 0.000019 0.000005 -2.467410 -3.091230 -38.635100 22.291600 -0.000001 0.000005 15.676200 5.567880 -9.580200 12.994500 -0.242716 -4.980390 88.367900 4.458320 -69.869800 -5.348130 -0.000001 -0.000004 -71.736100 21.792300 -1.194370 -24.328900 0.000322 -0.000009 0.860361 14.134100 -3.523680 -22.291500 -0.000108 -0.000004 11.481800 5.289820 0.355537 -2.192480 -6.469440 -0.000000 -169.302000 -1.519220 7.997270 39.081100 -0.000007 -0.000012 0.050555 -0.045687 47.893400 40.985400 -0.000006 -0.000013 4.747260 6.166350 -50.908400 11.754300 -0.000000 0.000003 -0.132416 -0.518778 -38.415400 -2.192510 6.469440 -0.000001 -172.966000 8.404870 161.306000 -39.081100 -0.002282 -0.040193 0.063249 -0.082381 36.048700 -40.985400 0.000008 0.000006 5.883460 -3.454670 -59.282700 -11.754300 -0.000006 -0.000006 -0.011724 -0.116098 -21.305600
0.000000 0.000000 0.000000 0.000000 0.000000 -0.000000 136.932000 89.689200 -121.393000 84.238000 5.417760 7.818750 15.735700 0.000005 -0.000001 67.613200 82.742200 -64.631500 8.984550 -0.406207 -0.000000 5.829170 -5.564860 6.244020 16.377300 -0.000001 -0.000001 3.148030 -3.026600 -1.526040 6.456720 -0.000001 -0.000000 4.159080 -0.784848 -1.837830 12.994200 -0.242716 4.980390 -89.172900 -2.838180 -73.746000 5.348090 -0.000007 -0.000001 -67.958000 32.132400 -25.550000 24.328600 0.000019 0.000005 -2.853310 -3.925680 -36.055600 22.291600 -0.000001 0.000005 15.008900 5.563250 -9.344930 12.994500 -0.242716 -4.980390 88.306200 4.628810 -69.876200 -5.348130 -0.000001 -0.000004 -71.460300 21.991600 -2.903540 -24.328900 0.000322 -0.000009 1.224760 13.248500 -5.335410 -22.291500 -0.000108 -0.000004 10.908500 5.299480 0.085952 -2.192480 -6.469440 -0.000000 -169.395000 -2.363130 1.958130 39.081100 -0.000007 -0.000012 0.083703 -0.053433 57.445200 40.985400 -0.000006 -0.000013 3.266910 2.882470 -38.819500 11.754300 -0.000000 0.000003 -0.015381 -0.140214 -22.298200 -2.192510 6.469440 -0.000001 -173.264000 9.352550 164.577000 -39.081100 -0.002282 -0.040193 0.071693 -0.093545 36.176100 -40.985400 0.000008 0.000006 6.285630 -2.680750 -62.157500 -11.754300 -0.000006 -0.000006 -0.010819 -0.109663 -21.042100
0.000000 0.000000 0.000000 0.000000 0.000000 -0.000000 136.798000 90.077500 -118.160000 84.737700 4.741250 8.128950 15.735700 0.000005 -0.000001 71.654600 82.822800 -68.856100 8.984550 -0.406207 -0.000000 5.991080 -4.549390 5.831420 16.377300 -0.000001 -0.000001 2.945380 -3.204510 -1.376970 6.456720 -0.000001 -0.000000 4.112210 -1.463320 -1.708110 12.994200 -0.242716 4.980390 -89.084800 -3.127070 -73.677500 5.348090 -0.000007 -0.000001 -68.883600 33.710400 -23.527300 24.328600 0.000019 0.000005 -1.882220 -2.992610 -32.179100 22.291600 -0.000001 0.000005 13.251900 5.544940 -8.458790 12.994500 -0.242716 -4.980390 88.263900 4.842690 -70.249900 -5.348130 -0.000001 -0.000004 -70.991800 23.245000 -5.113470 -24.328900 0.000322 -0.000009 1.511640 11.490200 -7.554400 -22.291500 -0.000108 -0.000004 10.727500 5.313660 -0.315171 -2.192480 -6.469440 -0.000000 -169.836000 -4.350510 -3.388030 39.081100 -0.000007 -0.000012 0.116986 -0.055221 64.729100 40.985400 -0.000006 -0.000013 3.611960 -3.203100 -37.173300 11.754300 -0.000000 0.000003 -0.007357 -0.082708 -19.944100 -2.192510 6.469440 -0.000001 -173.841000 9.291060 167.888000 -39.081100 -0.002282 -0.040193 0.073202 -0.098841 35.272500 -40.985400 0.000008 0.000006 6.352680 -2.278730 -64.113000 -11.754300 -0.000006 -0.000006 -0.011082 -0.111554 -21.119600
0.000000 0.000000 0.000000 0.000000 0.000000 -0.000000 136.820000 90.650200 -115.034000 85.473100 4.046870 8.651790 15.735700 0.000005 -0.000001 76.000500 82.739100 -73.510300 8.984550 -0.406207 -0.000000 6.415600 -3.531940 5.174260 16.377300 -0.000001 -0.000001 2.836730 -3.310410 -1.231990 6.456720 -0.000001 -0.000000 4.087040 -2.207670 -1.634330 12.994200 -0.242716 4.980390 -89.042300 -3.237200 -73.510000 5.348090 -0.000007 -0.000001 -69.736800 35.148700 -21.545200 24.328600 0.000019 0.000005 -0.205336 -0.382193 -27.999900 22.291600 -0.000001 0.000005 10.891000 5.514610 -7.118610 12.994500 -0.242716 -4.980390 88.270600 5.000820 -70.895500 -5.348130 -0.000001 -0.000004 -70.022700 25.531200 -8.038300 -24.328900 0.000322 -0.000009 1.764510 10.168100 -9.905960 -22.291500 -0.000108 -0.000004 10.998200 5.333190 -0.877321 -2.192480 -6.469440 -0.000000 -170.945000 -6.331550 -7.469680 39.081100 -0.000007 -0.000012 0.096293 -0.037304 68.820500 40.985400 -0.000006 -0.000013 6.526470 -5.934010 -42.781600 11.754300 -0.000000 0.000003 -0.007049 -0.080089 -19.837200 -2.192510 6.469440 -0.000001 -174.883000 9.378040 172.042000 -39.081100 -0.002282 -0.040193 0.067757 -0.099250 33.003200 -40.985400 0.000008 0.000006 6.298120 -1.627540 -65.234800 -11.754300 -0.000006 -0.000006 -0.011358 -0.113523 -21.200100
0.000000 0.000000 0.000000 0.000000 0.000000 -0.000000 136.903000 91.171200 -112.129000 86.436400 3.241760 8.672990 15.735700 0.000005 -0.000001 80.155800 82.763000 -78.081200 8.984550 -0.406207 -0.000000 6.548180 -2.489050 4.287450 16.377300 -0.000001 -0.000001 2.779040 -3.363250 -1.098730 6.456720 -0.000001 -0.000000 4.223320 -2.823700 -1.706180 12.994200 -0.242716 4.980390 -88.993200 -3.349730 -73.260900 5.348090 -0.000007 -0.000001 -70.997200 35.961000 -19.113000 24.328600 0.000019 0.000005 1.168040 2.634200 -23.955600 22.291600 -0.000001 0.000005 8.759350 5.484750 -5.921140 12.994500 -0.242716 -4.980390 88.361800 4.924200 -71.573300 -5.348130 -0.000001 -0.000004 -68.620800 28.144300 -11.645600 -24.328900 0.000322 -0.000009 1.945210 9.102830 -12.124500 -22.291500 -0.000108 -0.000004 11.447400 5.358300 -1.625190 -2.192480 -6.469440 -0.000000 -172.419000 -7.727910 -11.792000 39.081100 -0.000007 -0.000012 0.092080 -0.034121 69.663900 40.985400 -0.000006 -0.000013 5.959260 -6.114680 -45.745700 11.754300 -0.000000 0.000003 -0.006789 -0.077852 -19.745900 -2.192510 6.469440 -0.000001 -176.222000 9.700710 175.645000 -39.081100 -0.002282 -0.040193 0.060537 -0.097446 30.428600 -40.985400 0.000008 0.000006 6.385290 -0.461078 -65.978300 -11.754300 -0.000006 -0.000006 -0.011151 -0.112047 -21.139700
